<svg width="56" height="56" viewBox="0 0 56 56" fill="none" xmlns="http://www.w3.org/2000/svg">
<rect width="56" height="56" rx="8" fill="#232321"/>
<path d="M23.5 24.25V22.75C23.5 21.5565 23.9741 20.4119 24.818 19.568C25.6619 18.7241 26.8065 18.25 28 18.25V18.25C29.1935 18.25 30.3381 18.7241 31.182 19.568C32.0259 20.4119 32.5 21.5565 32.5 22.75V24.25M19.75 24.25C19.5511 24.25 19.3603 24.329 19.2197 24.4697C19.079 24.6103 19 24.8011 19 25V35.125C19 36.5425 20.2075 37.75 21.625 37.75H34.375C35.7925 37.75 37 36.6011 37 35.1836V25C37 24.8011 36.921 24.6103 36.7803 24.4697C36.6397 24.329 36.4489 24.25 36.25 24.25H19.75Z" stroke="white" stroke-width="1.5" stroke-linecap="round" stroke-linejoin="round"/>
<path d="M23.5 26.5V27.25C23.5 28.4435 23.9741 29.5881 24.818 30.432C25.6619 31.2759 26.8065 31.75 28 31.75C29.1935 31.75 30.3381 31.2759 31.182 30.432C32.0259 29.5881 32.5 28.4435 32.5 27.25V26.5" stroke="white" stroke-width="1.5" stroke-linecap="round" stroke-linejoin="round"/>
</svg>
